trial_1_ID.mot
nRows=7
nColumns=42

name trial_1_ID.mot
datacolumns 42
datarows 7
range 3.2900000000 3.3500000000
endheader
time	pelvis_tilt_moment	pelvis_list_moment	pelvis_rotation_moment	pelvis_tx_force	pelvis_ty_force	pelvis_tz_force	hip_flexion_r_moment	hip_adduction_r_moment	hip_rotation_r_moment	knee_angle_r_moment	knee_vv_r_moment	knee_rot_r_moment	ankle_angle_r_moment	subtalar_angle_r_moment	mtp_angle_r_moment	hip_flexion_l_moment	hip_adduction_l_moment	hip_rotation_l_moment	knee_angle_l_moment	knee_vv_l_moment	knee_rot_l_moment	ankle_angle_l_moment	subtalar_angle_l_moment	mtp_angle_l_moment	lumbar_extension_moment	lumbar_bending_moment	lumbar_rotation_moment	arm_flex_r_moment	arm_add_r_moment	arm_rot_r_moment	elbow_flex_r_moment	pro_sup_r_moment	wrist_flex_r_moment	wrist_dev_r_moment	arm_flex_l_moment	arm_add_l_moment	arm_rot_l_moment	elbow_flex_l_moment	pro_sup_l_moment	wrist_flex_l_moment	wrist_dev_l_moment
        3.2900000000	       10.6493126200	       -2.3654615200	       -4.3766516500	        2.8660209100	       16.4003419600	        6.9412521200	       -5.9786826000	      -43.2032285700	        1.5731867400	        5.7011959000	      -17.8125242000	       -2.6212449600	      -27.5240883800	       10.7377958300	        0.0272785100	        8.4246148500	        2.6374703900	       -1.4611788300	        2.3104608200	       -1.8929312700	       -0.2339442200	        0.6810010800	        0.0415134100	        0.0287298200	       23.9716264600	       -1.1074246100	       -4.0075191300	       -1.0002237900	       -1.3801486200	        0.0346141300	       -0.1092045000	        0.0091501800	        0.0239323000	        0.0285298800	        0.5087746500	       -1.7230964500	       -0.0587472200	       -0.3088740500	       -0.0170988600	       -0.0436277100	       -0.0033538600	
        3.3000000000	       10.5062498900	       -1.3506270600	       -4.5018244500	        2.7687767500	       16.6728351200	        8.1569335800	       -5.4605461700	      -42.5511698600	        1.4039077700	        4.6860028600	      -17.3124342200	       -2.5891870300	      -28.4562086500	       10.8844998900	        0.0270514900	        8.1860286900	        2.1286213100	       -1.1484657100	        1.9750908400	       -1.5411406900	       -0.2007025900	        0.7124131900	        0.0091374800	        0.0300397400	       23.4909946400	       -0.4326339200	       -4.2360166400	       -1.0247494000	       -1.4042172000	        0.0420399400	       -0.1046704300	        0.0098179200	        0.0260935900	        0.0284301100	        0.6124073900	       -1.6720815200	       -0.0468728600	       -0.2857476500	       -0.0166718800	       -0.0471874500	       -0.0053743100	
        3.3100000000	        9.9696323200	        0.1028573500	       -4.5987679900	        3.6124862700	       15.3773806700	        9.1288878400	       -4.9901718400	      -41.7815511200	        1.2441353900	        3.6244591600	      -16.7923615900	       -2.5524767000	      -29.3355044000	       11.0027848700	        0.0269479200	        7.9948765900	        1.5371339300	       -0.8068553600	        1.6581278700	       -1.1533399600	       -0.1632601000	        0.7629957900	       -0.0288952200	        0.0321472800	       22.4642300800	        0.3542938800	       -4.3116576700	       -1.0268356600	       -1.3964353100	        0.0478594800	       -0.0909224900	        0.0099397700	        0.0283837800	        0.0270335100	        0.7101556200	       -1.6087392800	       -0.0385999900	       -0.2553794900	       -0.0166697200	       -0.0497559400	       -0.0080828000	
        3.3200000000	        8.9953244400	        1.9332261700	       -4.6949921600	        5.1527050100	       12.9413955000	        9.6772713200	       -4.5733762100	      -40.9271232800	        1.0884157200	        2.5146093800	      -16.2714564400	       -2.5195034300	      -30.1872295500	       11.0923410600	        0.0269754600	        7.7923747700	        0.8552959800	       -0.4323825400	        1.3489051000	       -0.7225683900	       -0.1233401300	        0.8249982400	       -0.0709356500	        0.0347273100	       20.9874172300	        1.1973764100	       -4.2654849200	       -1.0079583400	       -1.3616308700	        0.0518801500	       -0.0703577000	        0.0095643700	        0.0305812800	        0.0247076000	        0.8015037600	       -1.5395703000	       -0.0340534200	       -0.2205818500	       -0.0170796300	       -0.0514469800	       -0.0112086500	
        3.3300000000	        7.5645335500	        4.0286007200	       -4.8101719100	        7.0355643100	        9.8508027200	        9.6095968000	       -4.2109170900	      -40.0296747800	        0.9298983700	        1.3520488000	      -15.7676173500	       -2.4981545800	      -31.0395506700	       11.1553871500	        0.0271211000	        7.5105473800	        0.0778419600	       -0.0245817700	        1.0334924200	       -0.2447994000	       -0.0828741900	        0.8916899900	       -0.1152836000	        0.0375112500	       19.1877089400	        2.0171105600	       -4.1441205000	       -0.9716344900	       -1.3084414100	        0.0541599400	       -0.0465232000	        0.0088235800	        0.0324638600	        0.0219614100	        0.8879389400	       -1.4713314600	       -0.0328615100	       -0.1839324700	       -0.0178426800	       -0.0524788400	       -0.0145141300	
        3.3400000000	        5.6970623000	        6.2491922600	       -4.9499208400	        8.8487426900	        6.5924217300	        8.7735355400	       -3.8980586600	      -39.1337090600	        0.7617659200	        0.1292971100	      -15.2960616500	       -2.4947534400	      -31.9241154500	       11.1968229700	        0.0273578800	        7.0847732400	       -0.7890959200	        0.4077560900	        0.6957746100	        0.2742538600	       -0.0443142500	        0.9578422100	       -0.1599422700	        0.0403145200	       17.2118870400	        2.7306722400	       -4.0001987000	       -0.9226553900	       -1.2471411800	        0.0549647700	       -0.0231979100	        0.0078954100	        0.0338537800	        0.0193249900	        0.9708479800	       -1.4101982300	       -0.0342039800	       -0.1478540400	       -0.0188353800	       -0.0530995900	       -0.0177654300	
        3.3500000000	        3.4595283300	        8.4417986000	       -5.1026755100	       10.1885495200	        3.6036820100	        7.1118569000	       -3.6247429700	      -38.2823099900	        0.5785053300	       -1.1635034100	      -14.8688325100	       -2.5134800400	      -32.8752303400	       11.2239323900	        0.0276519400	        6.4673066100	       -1.7168055000	        0.8421251700	        0.3192586300	        0.8125790500	       -0.0108606900	        1.0198634800	       -0.2023744400	        0.0430460000	       15.2123338300	        3.2699540000	       -3.8825902100	       -0.8663333000	       -1.1874124100	        0.0547092700	       -0.0035394900	        0.0069628000	        0.0346544700	        0.0172379700	        1.0498301600	       -1.3611283100	       -0.0369292100	       -0.1147080800	       -0.0198679500	       -0.0535236000	       -0.0207094000	
